<svg xmlns="http://www.w3.org/2000/svg" width="210mm" height="297mm" viewBox="0 0 21000 29700" shape-rendering="geometricPrecision" text-rendering="geometricPrecision" image-rendering="optimizeQuality" fill-rule="evenodd" clip-rule="evenodd"><path d="M1922.21 13358.2l7411.53 6919.34c307.62 287.11 713.67 447.07 1136.13 447.07 422.46 0 828.52-159.96 1136.13-447.07l7411.53-6919.34c1246.88-1160.74 1952.34-2789.06 1952.34-4491.21V8629.1c0-2866.99-2071.29-5311.52-4897.27-5783.2-1870.31-311.72-3773.43 299.41-5110.54 1636.52l-492.19 492.19-492.19-492.19C8640.57 3145.31 6737.45 2534.18 4867.13 2845.9 2041.16 3317.58-30.13 5762.11-30.13 8629.1v237.89c0 1702.15 705.47 3330.47 1952.34 4491.21z" fill="#c40237" fill-rule="nonzero"/></svg>