<?xml version="1.0" encoding="UTF-8"?>
<!DOCTYPE svg PUBLIC "-//W3C//DTD SVG 1.1//EN" "http://www.w3.org/Graphics/SVG/1.1/DTD/svg11.dtd">
<!-- Creator: CorelDRAW 2020 (64-Bit) -->
<svg xmlns="http://www.w3.org/2000/svg" xml:space="preserve" width="210mm" height="297mm" version="1.1" style="shape-rendering:geometricPrecision; text-rendering:geometricPrecision; image-rendering:optimizeQuality; fill-rule:evenodd; clip-rule:evenodd"
viewBox="0 0 21000 29700"
 xmlns:xlink="http://www.w3.org/1999/xlink"
 xmlns:xodm="http://www.corel.com/coreldraw/odm/2003">
 <defs>
  <style type="text/css">
   <![CDATA[
    .fil0 {fill:#C40237;fill-rule:nonzero}
   ]]>
  </style>
 </defs>
 <g id="Слой_x0020_1">
  <metadata id="CorelCorpID_0Corel-Layer"/>
  <path class="fil0" d="M1922.21 13358.2l7411.53 6919.34c307.62,287.11 713.67,447.07 1136.13,447.07 422.46,0 828.52,-159.96 1136.13,-447.07l7411.53 -6919.34c1246.88,-1160.74 1952.34,-2789.06 1952.34,-4491.21l0 -237.89c0,-2866.99 -2071.29,-5311.52 -4897.27,-5783.2 -1870.31,-311.72 -3773.43,299.41 -5110.54,1636.52l-492.19 492.19 -492.19 -492.19c-1337.11,-1337.11 -3240.23,-1948.24 -5110.55,-1636.52 -2825.97,471.68 -4897.26,2916.21 -4897.26,5783.2l0 237.89c0,1702.15 705.47,3330.47 1952.34,4491.21z"/>
 </g>
</svg>
